<?xml version="1.0" encoding="UTF-8" standalone="no"?>
<!--
  battery_top.svg - top slice of the stacked battery tower.
  The viewBox ends exactly where the ink ends (the 3-unit dark separator at y=68.5 covers 67..70),
  so the slice carries no transparent bottom margin and the next slice butts directly against it.
  No drop shadow here on purpose: one shadow is applied to the assembled tower
  (.device-battery-stack in app/admin/static/css/admin.css), otherwise every module would get its
  own shadow and the stack would read as separate boxes instead of one case.
-->

<svg
   viewBox="0 0 220 70"
   width="220"
   height="70"
   version="1.1"
   id="svg9"
   sodipodi:docname="battery_top.svg"
   xml:space="preserve"
   inkscape:version="1.4.2 (f4327f4, 2025-05-13)"
   xmlns:inkscape="http://www.inkscape.org/namespaces/inkscape"
   xmlns:sodipodi="http://sodipodi.sourceforge.net/DTD/sodipodi-0.dtd"
   xmlns="http://www.w3.org/2000/svg"
   xmlns:svg="http://www.w3.org/2000/svg"><sodipodi:namedview
     id="namedview9"
     pagecolor="#ffffff"
     bordercolor="#000000"
     borderopacity="0.25"
     inkscape:showpageshadow="2"
     inkscape:pageopacity="0.0"
     inkscape:pagecheckerboard="0"
     inkscape:deskcolor="#d1d1d1"
     showgrid="false"
     inkscape:zoom="3.4090909"
     inkscape:cx="96.8"
     inkscape:cy="94.893333"
     inkscape:window-width="2560"
     inkscape:window-height="1369"
     inkscape:window-x="1912"
     inkscape:window-y="70"
     inkscape:window-maximized="1"
     inkscape:current-layer="svg9" /><defs
     id="defs6"><linearGradient
       id="face"
       x1="10.293005"
       y1="7.6508272"
       x2="119.10477"
       y2="7.6508272"
       gradientTransform="scale(1.7001838,0.5881717)"
       gradientUnits="userSpaceOnUse"><stop
         offset="0%"
         stop-color="#eef2f4"
         id="stop1" /><stop
         offset="10%"
         stop-color="#ffffff"
         id="stop2" /><stop
         offset="88%"
         stop-color="#fbfcfd"
         id="stop3" /><stop
         offset="100%"
         stop-color="#e7ecef"
         id="stop4" /></linearGradient><linearGradient
       id="edgeL"
       x1="30.217394"
       y1="3.5741004"
       x2="67.149765"
       y2="3.5741004"
       gradientTransform="scale(0.5956834,1.6787441)"
       gradientUnits="userSpaceOnUse"><stop
         offset="0%"
         stop-color="#cfd6db"
         id="stop5" /><stop
         offset="100%"
         stop-color="#f5f7f8"
         id="stop6" /></linearGradient></defs><path
     d="M 18,16 Q 18,7 30,5 h 160 q 12,2 12,11 V 68 H 18 Z"
     fill="url(#face)"
     stroke="#d8dde1"
     stroke-width="1"
     id="path6"
     style="fill:url(#face)" /><path
     d="M 18,18 Q 18,8 30,6 H 40 L 30,19 V 68 H 18 Z"
     fill="url(#edgeL)"
     opacity="0.9"
     id="path7"
     style="fill:url(#edgeL)" /><line
     x1="18"
     y1="68.5"
     x2="202"
     y2="68.5"
     stroke="#34383b"
     stroke-width="3"
     id="line7" /><g
     inkscape:label="Ebene 1"
     id="layer1"
     transform="matrix(0.68522552,0,0,0.68522552,57.378305,-43.826251)"><path
       d="m 175.09067,93.751903 a 5.4609999,5.4609999 0 0 0 9.74989,0 z"
       fill="#ce181e"
       fill-rule="evenodd"
       id="path7-9"
       style="stroke-width:0.264583" /><path
       d="m 194.59046,93.751903 a 5.4609999,5.4609999 0 0 0 -9.7499,0 z"
       fill="#ce181e"
       fill-rule="evenodd"
       id="path8-4"
       style="stroke-width:0.264583" /><path
       d="m 172.84171,97.501053 a 5.4609999,5.4609999 0 0 0 9.74989,0 z"
       fill="#ce181e"
       fill-rule="evenodd"
       id="path9-8"
       style="stroke-width:0.264583" /><path
       d="m 192.3415,97.501053 a 5.4636458,5.4636458 0 0 0 -9.7499,0 z"
       fill="#ce181e"
       fill-rule="evenodd"
       id="path10"
       style="stroke-width:0.264583" /><path
       d="m 170.59275,101.25284 a 5.4609999,5.4609999 0 0 0 9.74989,0 z"
       fill="#ce181e"
       fill-rule="evenodd"
       id="path11"
       style="stroke-width:0.264583" /><path
       d="m 190.09254,101.25284 a 5.4609999,5.4609999 0 0 0 -9.7499,0 z"
       fill="#ce181e"
       fill-rule="evenodd"
       id="path12"
       style="stroke-width:0.264583" /><path
       d="m 130.14325,116.25207 -3.70417,-7.81579 h -1.71714 v 7.81579 h -5.13027 V 95.252093 h 8.26558 c 4.63021,0 7.11994,3.302 7.11994,6.752167 a 6.0457291,6.0457291 0 0 1 -3.39725,5.48745 l 4.49791,8.76036 z m -2.52148,-16.369767 h -2.91042 v 4.233327 h 2.91042 a 2.1166666,2.1166666 0 0 0 0,-4.233327 z"
       fill="#58595b"
       id="path13"
       style="stroke-width:0.264583" /><path
       d="m 145.65312,116.47696 c -2.4765,0 -4.35768,-0.82814 -5.91079,-2.38125 -2.24102,-2.2225 -2.15106,-5.18318 -2.15106,-8.35818 0,-3.175 -0.09,-6.133047 2.15106,-8.355547 1.55311,-1.53987 3.43959,-2.38125 5.91079,-2.38125 4.03225,0 7.28927,2.2225 8.0645,6.879167 h -5.31548 c -0.33337,-1.16946 -0.98425,-2.227787 -2.71462,-2.227787 a 2.54,2.54 0 0 0 -2.0611,0.888997 c -0.4789,0.62177 -0.79375,1.3626 -0.79375,5.21494 0,3.85233 0.32808,4.59052 0.79375,5.21493 a 2.555875,2.555875 0 0 0 2.0611,0.889 c 1.73302,0 2.38125,-1.05833 2.71727,-2.25425 h 5.31548 c -0.77788,4.64873 -4.0349,6.87123 -8.06715,6.87123 z"
       fill="#58595b"
       id="path14"
       style="stroke-width:0.264583" /><polygon
       points="211.13,45.38 211.13,28.37 154.43,28.37 154.43,45.38 172.86,45.38 172.86,107.74 192.7,107.74 192.7,45.38 "
       fill="#58595b"
       id="polygon14"
       transform="matrix(0.26458333,0,0,0.26458333,114.73127,87.745863)" /></g></svg>
