<?xml version="1.0" encoding="UTF-8" standalone="no"?>
<svg
   viewBox="163 123 374 395"
   version="1.1"
   id="svg17"
   sodipodi:docname="rct-inverter.svg"
   xml:space="preserve"
   inkscape:version="1.4.2 (f4327f4, 2025-05-13)"
   xmlns:inkscape="http://www.inkscape.org/namespaces/inkscape"
   xmlns:sodipodi="http://sodipodi.sourceforge.net/DTD/sodipodi-0.dtd"
   xmlns="http://www.w3.org/2000/svg"
   xmlns:svg="http://www.w3.org/2000/svg"><sodipodi:namedview
     id="namedview17"
     pagecolor="#ffffff"
     bordercolor="#000000"
     borderopacity="0.25"
     inkscape:showpageshadow="2"
     inkscape:pageopacity="0.0"
     inkscape:pagecheckerboard="0"
     inkscape:deskcolor="#d1d1d1"
     showgrid="false"
     inkscape:zoom="8.356391"
     inkscape:cx="211.21558"
     inkscape:cy="218.45555"
     inkscape:window-width="2560"
     inkscape:window-height="1369"
     inkscape:window-x="1912"
     inkscape:window-y="70"
     inkscape:window-maximized="1"
     inkscape:current-layer="svg17" /><defs
     id="defs7"><linearGradient
       id="case"
       x1="168.35509"
       y1="120.45042"
       x2="551.11109"
       y2="503.20642"
       gradientTransform="scale(0.97294358,1.0278088)"
       gradientUnits="userSpaceOnUse"><stop
         offset="0"
         stop-color="#fbfcfd"
         id="stop1" /><stop
         offset="0.55"
         stop-color="#f3f6f7"
         id="stop2" /><stop
         offset="1"
         stop-color="#e9eef0"
         id="stop3" /></linearGradient><linearGradient
       id="panel"
       x1="219.75237"
       y1="400.53408"
       x2="219.75237"
       y2="491.00922"
       gradientTransform="scale(1.3208049,0.7571141)"
       gradientUnits="userSpaceOnUse"><stop
         offset="0"
         stop-color="#d9ddde"
         id="stop4" /><stop
         offset="1"
         stop-color="#c5cacc"
         id="stop5" /></linearGradient><linearGradient
       id="display"
       x1="226.79005"
       y1="452.68301"
       x2="255.7728"
       y2="481.66576"
       gradientTransform="scale(1.3801311,0.72456884)"
       gradientUnits="userSpaceOnUse"><stop
         offset="0"
         stop-color="#4e595b"
         id="stop6" /><stop
         offset="1"
         stop-color="#202728"
         id="stop7" /></linearGradient></defs><!-- transparent canvas --><path
     d="m 175,125 q -10,0 -10,11 v 368 q 0,12 12,12 h 346 q 12,0 12,-12 V 136 q 0,-11 -11,-11 z"
     fill="url(#case)"
     stroke="#d4dade"
     stroke-width="2.4"
     id="path7"
     style="fill:url(#case)" /><path
     d="M 174,132 V 508"
     stroke="#cfd5d8"
     stroke-width="3"
     opacity="0.7"
     id="path8" /><path
     d="M 526,132 V 508"
     stroke="#ffffff"
     stroke-width="3.5"
     opacity="0.88"
     id="path9" /><rect
     x="291"
     y="304"
     width="118"
     height="67"
     rx="8"
     fill="url(#panel)"
     stroke="#c4c9ca"
     stroke-width="1.5"
     id="rect9"
     style="fill:url(#panel)" /><rect
     x="309"
     y="324"
     width="48"
     height="29"
     rx="3.5"
     fill="#141a1b"
     stroke="#7f888a"
     stroke-width="1.3"
     id="rect10" /><rect
     x="313"
     y="328"
     width="40"
     height="21"
     rx="2"
     fill="url(#display)"
     id="rect11"
     style="fill:url(#display)" /><path
     d="m 315,330 h 36"
     stroke="#718083"
     stroke-width="1"
     opacity="0.45"
     id="path11" /><text
     x="370"
     y="346"
     font-family="Arial, Helvetica, sans-serif"
     font-size="4.8px"
     font-weight="700"
     fill="#6d7476"
     id="text12">POWER</text><text
     x="369.88034"
     y="350.79025"
     font-family="Arial, Helvetica, sans-serif"
     font-size="4.2px"
     fill="#5d6668"
     id="text13">storage DC</text><circle
     cx="191"
     cy="141"
     r="3"
     id="circle13"
     style="fill:#1d2628" /><circle
     cx="509"
     cy="141"
     r="3"
     id="circle14"
     style="fill:#1d2628" /><circle
     cx="191"
     cy="500"
     r="3"
     id="circle15"
     style="fill:#1d2628" /><circle
     cx="509"
     cy="500"
     r="3"
     id="circle16"
     style="fill:#1d2628" /><g
     inkscape:label="Ebene 1"
     id="layer1"
     transform="matrix(0.35858176,0,0,0.35858176,327.05633,296.48111)"><path
       d="m 175.09067,93.751903 a 5.4609999,5.4609999 0 0 0 9.74989,0 z"
       fill="#ce181e"
       fill-rule="evenodd"
       id="path7-9"
       style="stroke-width:0.264583" /><path
       d="m 194.59046,93.751903 a 5.4609999,5.4609999 0 0 0 -9.7499,0 z"
       fill="#ce181e"
       fill-rule="evenodd"
       id="path8-4"
       style="stroke-width:0.264583" /><path
       d="m 172.84171,97.501053 a 5.4609999,5.4609999 0 0 0 9.74989,0 z"
       fill="#ce181e"
       fill-rule="evenodd"
       id="path9-8"
       style="stroke-width:0.264583" /><path
       d="m 192.3415,97.501053 a 5.4636458,5.4636458 0 0 0 -9.7499,0 z"
       fill="#ce181e"
       fill-rule="evenodd"
       id="path10"
       style="stroke-width:0.264583" /><path
       d="m 170.59275,101.25284 a 5.4609999,5.4609999 0 0 0 9.74989,0 z"
       fill="#ce181e"
       fill-rule="evenodd"
       id="path11-5"
       style="stroke-width:0.264583" /><path
       d="m 190.09254,101.25284 a 5.4609999,5.4609999 0 0 0 -9.7499,0 z"
       fill="#ce181e"
       fill-rule="evenodd"
       id="path12"
       style="stroke-width:0.264583" /><path
       d="m 130.14325,116.25207 -3.70417,-7.81579 h -1.71714 v 7.81579 h -5.13027 V 95.252093 h 8.26558 c 4.63021,0 7.11994,3.302 7.11994,6.752167 a 6.0457291,6.0457291 0 0 1 -3.39725,5.48745 l 4.49791,8.76036 z m -2.52148,-16.369767 h -2.91042 v 4.233327 h 2.91042 a 2.1166666,2.1166666 0 0 0 0,-4.233327 z"
       fill="#58595b"
       id="path13"
       style="stroke-width:0.264583" /><path
       d="m 145.65312,116.47696 c -2.4765,0 -4.35768,-0.82814 -5.91079,-2.38125 -2.24102,-2.2225 -2.15106,-5.18318 -2.15106,-8.35818 0,-3.175 -0.09,-6.133047 2.15106,-8.355547 1.55311,-1.53987 3.43959,-2.38125 5.91079,-2.38125 4.03225,0 7.28927,2.2225 8.0645,6.879167 h -5.31548 c -0.33337,-1.16946 -0.98425,-2.227787 -2.71462,-2.227787 a 2.54,2.54 0 0 0 -2.0611,0.888997 c -0.4789,0.62177 -0.79375,1.3626 -0.79375,5.21494 0,3.85233 0.32808,4.59052 0.79375,5.21493 a 2.555875,2.555875 0 0 0 2.0611,0.889 c 1.73302,0 2.38125,-1.05833 2.71727,-2.25425 h 5.31548 c -0.77788,4.64873 -4.0349,6.87123 -8.06715,6.87123 z"
       fill="#58595b"
       id="path14"
       style="stroke-width:0.264583" /><polygon
       points="154.43,45.38 172.86,45.38 172.86,107.74 192.7,107.74 192.7,45.38 211.13,45.38 211.13,28.37 154.43,28.37 "
       fill="#58595b"
       id="polygon14"
       transform="matrix(0.26458333,0,0,0.26458333,114.73127,87.745863)" /></g></svg>
